<?xml version="1.0" encoding="UTF-8" standalone="no"?><!DOCTYPE svg PUBLIC "-//W3C//DTD SVG 1.1//EN" "http://www.w3.org/Graphics/SVG/1.1/DTD/svg11.dtd"><svg width="100%" height="100%" viewBox="0 0 30 30" version="1.1" xmlns="http://www.w3.org/2000/svg" xmlns:xlink="http://www.w3.org/1999/xlink" xml:space="preserve" xmlns:serif="http://www.serif.com/" style="fill-rule:evenodd;clip-rule:evenodd;stroke-linecap:round;stroke-linejoin:round;stroke-miterlimit:1.5;"><rect id="Export" x="0" y="0" width="30" height="30" style="fill:none;"/><clipPath id="_clip1"><rect x="0" y="0" width="30" height="30"/></clipPath><g clip-path="url(#_clip1)"><rect x="-2.56" y="-2.697" width="6.726" height="35.393" style="fill:#fff;stroke:#000;stroke-width:0.8px;"/><g><path d="M4.166,6.361l28.098,0" style="fill:none;stroke:#000;stroke-width:0.8px;"/><circle cx="8.15" cy="6.361" r="2.727" style="fill:#008814;stroke:#000;stroke-width:0.76px;"/><circle cx="15" cy="6.361" r="2.727" style="fill:#008814;stroke:#000;stroke-width:0.76px;"/><circle cx="21.894" cy="6.361" r="2.727" style="fill:#008814;stroke:#000;stroke-width:0.76px;"/></g><g><path d="M4.166,14.241l28.098,0" style="fill:none;stroke:#000;stroke-width:0.8px;"/><circle cx="8.15" cy="14.241" r="2.727" style="fill:#3f5caa;stroke:#000;stroke-width:0.76px;"/><circle cx="15" cy="14.241" r="2.727" style="fill:#3f5caa;stroke:#000;stroke-width:0.76px;"/></g><g><path d="M4.166,22.12l28.098,0" style="fill:none;stroke:#000;stroke-width:0.8px;"/><circle cx="8.15" cy="22.12" r="2.727" style="fill:#df0000;stroke:#000;stroke-width:0.76px;"/><circle cx="15" cy="22.12" r="2.727" style="fill:#df0000;stroke:#000;stroke-width:0.76px;"/><circle cx="21.894" cy="22.12" r="2.727" style="fill:#df0000;stroke:#000;stroke-width:0.76px;"/><circle cx="28.851" cy="22.12" r="2.727" style="fill:#df0000;stroke:#000;stroke-width:0.76px;"/></g><g><path d="M4.166,30l28.098,0" style="fill:none;stroke:#000;stroke-width:0.8px;"/><circle cx="8.15" cy="30" r="2.727" style="fill:#008814;stroke:#000;stroke-width:0.76px;"/><circle cx="15" cy="30" r="2.727" style="fill:#008814;stroke:#000;stroke-width:0.76px;"/><circle cx="21.894" cy="30" r="2.727" style="fill:#008814;stroke:#000;stroke-width:0.76px;"/><circle cx="28.851" cy="30" r="2.727" style="fill:#008814;stroke:#000;stroke-width:0.76px;"/></g></g></svg>