<?xml version="1.0" encoding="UTF-8" standalone="no"?><!DOCTYPE svg PUBLIC "-//W3C//DTD SVG 1.1//EN" "http://www.w3.org/Graphics/SVG/1.1/DTD/svg11.dtd"><svg width="100%" height="100%" viewBox="0 0 30 30" version="1.1" xmlns="http://www.w3.org/2000/svg" xmlns:xlink="http://www.w3.org/1999/xlink" xml:space="preserve" xmlns:serif="http://www.serif.com/" style="fill-rule:evenodd;clip-rule:evenodd;stroke-linecap:round;stroke-linejoin:round;stroke-miterlimit:1.5;"><rect id="Export" x="0" y="0" width="30" height="30" style="fill:none;"/><clipPath id="_clip1"><rect x="0" y="0" width="30" height="30"/></clipPath><g clip-path="url(#_clip1)"><path d="M8.21,15.938l-2.882,-3.06l-2.883,3.06l0,17.37l5.765,0l0,-17.37Z" style="fill:#3f5caa;stroke:#000;stroke-width:0.8px;"/><path d="M14.992,15.938l-2.883,-3.06l-2.882,3.06l0,17.37l5.765,0l0,-17.37Z" style="fill:#3f5caa;stroke:#000;stroke-width:0.8px;"/><path d="M30.822,18.345l-5.149,-5.467l-5.149,5.467l0,31.029l10.298,0l0,-31.029Z" style="fill:#df0000;stroke:#000;stroke-width:0.8px;"/><g><g><circle cx="22.282" cy="7.605" r="3.391" style="fill:#fff;stroke:#000;stroke-width:0.76px;"/><circle cx="29.064" cy="7.605" r="3.391" style="fill:#fff;stroke:#000;stroke-width:0.76px;"/></g><g><circle cx="8.719" cy="7.605" r="3.391" style="fill:#fff;stroke:#000;stroke-width:0.76px;"/><circle cx="15.5" cy="7.605" r="3.391" style="fill:#fff;stroke:#000;stroke-width:0.76px;"/></g><g><circle cx="1.937" cy="7.605" r="3.391" style="fill:#fff;stroke:#000;stroke-width:0.76px;"/></g></g></g></svg>