<?xml version="1.0" encoding="UTF-8" standalone="no"?><!DOCTYPE svg PUBLIC "-//W3C//DTD SVG 1.1//EN" "http://www.w3.org/Graphics/SVG/1.1/DTD/svg11.dtd"><svg width="100%" height="100%" viewBox="0 0 30 30" version="1.1" xmlns="http://www.w3.org/2000/svg" xmlns:xlink="http://www.w3.org/1999/xlink" xml:space="preserve" xmlns:serif="http://www.serif.com/" style="fill-rule:evenodd;clip-rule:evenodd;stroke-linejoin:round;stroke-miterlimit:2;"><rect id="Export" x="0" y="0" width="30" height="30" style="fill:none;"/><path d="M14.484,7.602c0.035,-0.015 0.07,-0.028 0.106,-0.04c0.534,-0.167 0.852,-0.554 0.985,-1.14c0.118,-0.515 -0.016,-0.916 -0.451,-1.196c-0.444,-0.295 -0.917,-0.316 -1.418,-0.083c-0.525,0.243 -1.148,0.015 -1.392,-0.51c-0.243,-0.524 -0.015,-1.148 0.51,-1.391c1.222,-0.568 2.374,-0.482 3.447,0.23c1.229,0.792 1.689,1.927 1.347,3.415c-0.154,0.682 -0.427,1.242 -0.816,1.683c0.363,0.423 0.595,0.976 0.696,1.657c0.231,1.488 -0.221,2.583 -1.245,3.325c-1.049,0.765 -2.232,0.841 -3.552,0.129c-0.509,-0.275 -0.699,-0.911 -0.425,-1.42c0.275,-0.509 0.911,-0.699 1.42,-0.425c0.491,0.266 0.932,0.307 1.325,0.021c0.396,-0.287 0.495,-0.735 0.405,-1.316c-0.076,-0.51 -0.374,-0.8 -0.888,-0.875c-0.517,-0.076 -0.9,-0.522 -0.896,-1.045c0.004,-0.499 0.359,-0.923 0.842,-1.019Z" style="fill:#e01e26;stroke:#000;stroke-width:0.8px;"/><circle cx="10.639" cy="18.534" r="2.31" style="fill:#e01e26;stroke:#000;stroke-width:0.76px;stroke-linecap:round;stroke-miterlimit:1.5;"/><circle cx="18.932" cy="18.534" r="2.31" style="fill:#e01e26;stroke:#000;stroke-width:0.76px;stroke-linecap:round;stroke-miterlimit:1.5;"/><circle cx="14.939" cy="24.82" r="2.31" style="fill:#e01e26;stroke:#000;stroke-width:0.76px;stroke-linecap:round;stroke-miterlimit:1.5;"/></svg>