<?xml version="1.0" encoding="UTF-8" standalone="no"?><!DOCTYPE svg PUBLIC "-//W3C//DTD SVG 1.1//EN" "http://www.w3.org/Graphics/SVG/1.1/DTD/svg11.dtd"><svg width="100%" height="100%" viewBox="0 0 30 30" version="1.1" xmlns="http://www.w3.org/2000/svg" xmlns:xlink="http://www.w3.org/1999/xlink" xml:space="preserve" xmlns:serif="http://www.serif.com/" style="fill-rule:evenodd;clip-rule:evenodd;stroke-linecap:round;stroke-linejoin:round;stroke-miterlimit:1.5;"><rect id="Export" x="0" y="0" width="30" height="30" style="fill:none;"/><clipPath id="_clip1"><rect x="0" y="0" width="30" height="30"/></clipPath><g clip-path="url(#_clip1)"><g><path d="M28.271,-6.572l-33.658,-2.888l-2.891,33.682l33.658,2.889l2.891,-33.683Z" style="fill:#3f5caa;stroke:#000;stroke-width:0.8px;"/><path d="M26.826,10.27l-16.829,-1.445l-1.446,16.842l16.829,1.444l1.446,-16.841Z" style="fill:#fff;stroke:#000;stroke-width:0.8px;"/><path d="M28.271,-6.572l-16.829,-1.444l-1.445,16.841l16.829,1.445l1.445,-16.842Z" style="fill:none;stroke:#000;stroke-width:0.8px;"/><path d="M9.997,8.825l-16.829,-1.444l-1.446,16.841l16.829,1.445l1.446,-16.842Z" style="fill:none;stroke:#000;stroke-width:0.8px;"/></g><path d="M14.412,22.077c-0.445,0.022 -0.832,-0.308 -0.877,-0.756c-0.069,-0.686 -0.121,-1.269 -0.155,-1.734c-0.044,-0.621 -0.082,-1.344 -0.113,-2.151c-0.011,-0.271 -0.024,-0.556 -0.039,-0.853l-0.041,0.041c-0.198,0.199 -0.387,0.412 -0.561,0.631c-0.289,0.364 -0.818,0.424 -1.182,0.135c-0.363,-0.29 -0.423,-0.818 -0.134,-1.182c0.213,-0.267 0.443,-0.526 0.686,-0.772c0.247,-0.246 0.495,-0.492 0.747,-0.738c0.003,-0.003 0.006,-0.006 0.009,-0.008c0.21,-0.197 0.414,-0.394 0.611,-0.588c0.234,-0.232 0.58,-0.305 0.889,-0.19c0.307,0.116 0.519,0.401 0.542,0.728c0.07,1.007 0.121,1.925 0.153,2.73c0.031,0.788 0.067,1.494 0.11,2.097c0.033,0.449 0.084,1.017 0.151,1.687c0.046,0.462 -0.29,0.874 -0.753,0.92l-0.043,0.003Z" style="fill-rule:nonzero;"/><path d="M17.533,15.293c0.932,-0.093 1.437,1.116 1.67,2.679c0.283,1.895 -0.194,2.937 -1.107,2.955c-0.759,0.016 -1.435,-0.81 -1.596,-2.685c-0.133,-1.557 0.307,-2.876 1.033,-2.949Z" style="fill:none;stroke:#000;stroke-width:1.59px;"/><path d="M22.228,15.106c0.931,-0.093 1.437,1.116 1.67,2.678c0.283,1.896 -0.194,2.938 -1.107,2.956c-0.759,0.015 -1.435,-0.81 -1.596,-2.686c-0.134,-1.556 0.307,-2.875 1.033,-2.948Z" style="fill:none;stroke:#000;stroke-width:1.59px;"/></g></svg>