<?xml version="1.0" encoding="UTF-8" standalone="no"?><!DOCTYPE svg PUBLIC "-//W3C//DTD SVG 1.1//EN" "http://www.w3.org/Graphics/SVG/1.1/DTD/svg11.dtd"><svg width="100%" height="100%" viewBox="0 0 30 30" version="1.1" xmlns="http://www.w3.org/2000/svg" xmlns:xlink="http://www.w3.org/1999/xlink" xml:space="preserve" xmlns:serif="http://www.serif.com/" style="fill-rule:evenodd;clip-rule:evenodd;stroke-linecap:round;stroke-linejoin:round;stroke-miterlimit:1.5;"><rect id="Export" x="0" y="0" width="30" height="30" style="fill:none;"/><clipPath id="_clip1"><rect x="0" y="0" width="30" height="30"/></clipPath><g clip-path="url(#_clip1)"><rect x="-4.134" y="7.088" width="27.71" height="12.19" style="fill:#fff;stroke:#000;stroke-width:0.76px;"/><rect x="8.986" y="8.743" width="16.2" height="12.19" style="fill:#fff;stroke:#000;stroke-width:0.76px;"/><rect x="17.925" y="10.415" width="9.017" height="12.19" style="fill:#fff;stroke:#000;stroke-width:0.76px;"/><path d="M23.266,20.733c-0.456,-0.023 -0.818,-0.4 -0.818,-0.862c0,-0.707 0.006,-1.308 0.018,-1.787c0.019,-0.639 0.054,-1.382 0.104,-2.209c0.017,-0.278 0.033,-0.57 0.047,-0.875l-0.045,0.037c-0.223,0.184 -0.437,0.382 -0.638,0.588c-0.333,0.342 -0.879,0.349 -1.221,0.017c-0.341,-0.333 -0.349,-0.879 -0.016,-1.221c0.245,-0.251 0.506,-0.492 0.78,-0.718c0.277,-0.227 0.555,-0.452 0.838,-0.678c0.003,-0.003 0.007,-0.005 0.01,-0.008c0.234,-0.179 0.463,-0.359 0.684,-0.538c0.263,-0.213 0.624,-0.252 0.928,-0.103c0.301,0.15 0.489,0.463 0.478,0.799c-0.031,1.036 -0.072,1.979 -0.122,2.805c-0.049,0.807 -0.083,1.532 -0.101,2.152c-0.012,0.463 -0.019,1.048 -0.019,1.739c0,0.477 -0.385,0.863 -0.863,0.863l-0.044,-0.001Z" style="fill:#008814;fill-rule:nonzero;stroke:#000;stroke-width:0.8px;stroke-linecap:butt;stroke-miterlimit:2;"/><path d="M12.227,19.289c-0.298,-0.01 -0.572,-0.174 -0.719,-0.433c-0.163,-0.284 -0.15,-0.636 0.031,-0.907c0.191,-0.285 0.412,-0.663 0.658,-1.119c0.302,-0.56 0.672,-1.29 1.102,-2.172c0.387,-0.788 0.617,-1.506 0.673,-2.137c0.01,-0.111 0.018,-0.202 -0.034,-0.266c-0.066,-0.08 -0.184,-0.107 -0.335,-0.137c-0.113,-0.022 -0.218,0.025 -0.327,0.107c-0.207,0.157 -0.401,0.419 -0.599,0.774c-0.233,0.414 -0.756,0.562 -1.172,0.331c-0.416,-0.232 -0.564,-0.758 -0.333,-1.173c0.787,-1.409 1.755,-1.931 2.767,-1.73c0.61,0.121 1.06,0.392 1.353,0.763c0.302,0.382 0.45,0.879 0.398,1.482c-0.074,0.823 -0.354,1.748 -0.842,2.744c-0.415,0.849 -0.777,1.564 -1.077,2.127c0.287,-0.004 0.618,-0.013 0.988,-0.025c0.481,-0.016 0.874,0.357 0.891,0.835c0.014,0.475 -0.359,0.874 -0.834,0.888c-0.634,0.021 -1.157,0.03 -1.556,0.029c-0.371,-0.001 -0.693,0.005 -0.959,0.018c-0.015,0.001 -0.03,0.002 -0.045,0.002l-0.029,-0.001Z" style="fill:#153c67;fill-rule:nonzero;stroke:#000;stroke-width:0.8px;stroke-linecap:butt;stroke-miterlimit:2;"/><path d="M4.146,12.394c0.026,-0.011 0.053,-0.021 0.081,-0.03c0.381,-0.12 0.607,-0.398 0.701,-0.817c0.082,-0.357 -0.007,-0.636 -0.311,-0.832c-0.316,-0.209 -0.653,-0.223 -1.01,-0.057c-0.447,0.207 -0.978,0.012 -1.185,-0.434c-0.207,-0.447 -0.013,-0.978 0.434,-1.186c0.971,-0.45 1.886,-0.381 2.738,0.183c0.979,0.632 1.348,1.537 1.075,2.723c-0.116,0.512 -0.316,0.937 -0.599,1.278c0.263,0.329 0.431,0.751 0.507,1.263c0.184,1.184 -0.178,2.054 -0.993,2.644c-0.835,0.609 -1.776,0.673 -2.827,0.106c-0.434,-0.234 -0.596,-0.776 -0.362,-1.209c0.234,-0.434 0.775,-0.596 1.209,-0.362c0.345,0.186 0.655,0.223 0.931,0.022c0.279,-0.203 0.341,-0.522 0.277,-0.934c-0.052,-0.351 -0.257,-0.55 -0.612,-0.602c-0.44,-0.064 -0.766,-0.444 -0.763,-0.89c0.003,-0.422 0.301,-0.781 0.709,-0.866Z" style="fill:#e01e26;stroke:#000;stroke-width:0.8px;stroke-linecap:butt;stroke-miterlimit:2;"/></g></svg>