<?xml version="1.0" encoding="UTF-8" standalone="no"?><!DOCTYPE svg PUBLIC "-//W3C//DTD SVG 1.1//EN" "http://www.w3.org/Graphics/SVG/1.1/DTD/svg11.dtd"><svg width="100%" height="100%" viewBox="0 0 30 30" version="1.1" xmlns="http://www.w3.org/2000/svg" xmlns:xlink="http://www.w3.org/1999/xlink" xml:space="preserve" xmlns:serif="http://www.serif.com/" style="fill-rule:evenodd;clip-rule:evenodd;stroke-linecap:round;stroke-linejoin:round;stroke-miterlimit:1.5;"><rect id="Export" x="0" y="0" width="30" height="30" style="fill:none;"/><clipPath id="_clip1"><rect x="0" y="0" width="30" height="30"/></clipPath><g clip-path="url(#_clip1)"><g><path d="M30,4.843l-2.796,-4.843l-10.302,5.948l2.797,4.843l10.301,-5.948Z" style="fill:#df0000;"/><path d="M-0.904,22.686l-2.797,-4.843l-10.301,5.947l2.796,4.843l10.302,-5.947Z" style="fill:#0e46ff;"/><path d="M9.397,16.738l-2.796,-4.843l-10.302,5.948l2.797,4.843l10.301,-5.948Z" style="fill:#df0000;"/><path d="M19.81,10.726l-2.796,-4.843l-10.525,6.077l2.796,4.843l10.525,-6.077Z" style="fill:#3f5caa;stroke:#000;stroke-width:0.4px;"/><path d="M30,4.843l-2.796,-4.843l-41.206,23.79l2.796,4.843l41.206,-23.79Z" style="fill:none;stroke:#000;stroke-width:0.76px;"/></g><g><path d="M3.468,30.258l-2.797,-4.843l-10.301,5.947l2.796,4.844l10.302,-5.948Z" style="fill:#df0000;"/><path d="M24.07,18.363l-2.796,-4.843l-10.301,5.947l2.796,4.844l10.301,-5.948Z" style="fill:#df0000;"/><path d="M13.888,24.242l-2.796,-4.843l-10.539,6.085l2.796,4.843l10.539,-6.085Z" style="fill:#3f5caa;stroke:#000;stroke-width:0.4px;"/><path d="M24.07,18.363l-2.796,-4.843l-41.205,23.79l2.796,4.843l41.205,-23.79Z" style="fill:none;stroke:#000;stroke-width:0.76px;"/></g></g></svg>