<?xml version="1.0" encoding="UTF-8" standalone="no"?><!DOCTYPE svg PUBLIC "-//W3C//DTD SVG 1.1//EN" "http://www.w3.org/Graphics/SVG/1.1/DTD/svg11.dtd"><svg width="100%" height="100%" viewBox="0 0 30 30" version="1.1" xmlns="http://www.w3.org/2000/svg" xmlns:xlink="http://www.w3.org/1999/xlink" xml:space="preserve" xmlns:serif="http://www.serif.com/" style="fill-rule:evenodd;clip-rule:evenodd;stroke-linecap:round;stroke-linejoin:round;stroke-miterlimit:1.5;"><rect id="Export" x="0" y="0" width="30" height="30" style="fill:none;"/><clipPath id="_clip1"><rect x="0" y="0" width="30" height="30"/></clipPath><g clip-path="url(#_clip1)"><g><g><path d="M20.435,-5.146l-23.621,1.361l0.84,14.583l23.621,-1.361l-0.84,-14.583Z" style="fill:#fff;stroke:#000;stroke-width:0.8px;"/><path d="M22.047,22.829l-23.621,1.36l0.84,14.583l23.621,-1.36l-0.84,-14.583Z" style="fill:#fff;stroke:#000;stroke-width:0.8px;"/><path d="M21.275,9.437l-23.621,1.361l0.772,13.391l23.621,-1.36l-0.772,-13.392Z" style="fill:#fff;stroke:#000;stroke-width:0.8px;"/><path d="M13.495,-1.203c1.243,-0.072 1.846,1.563 2.069,3.651c0.27,2.534 -0.422,3.891 -1.636,3.865c-1.01,-0.023 -1.861,-1.157 -1.97,-3.657c-0.09,-2.076 0.569,-3.803 1.537,-3.859Z" style="fill:none;stroke:#000;stroke-width:1.59px;"/><path d="M15.051,25.8c1.242,-0.072 1.846,1.562 2.068,3.651c0.27,2.533 -0.421,3.891 -1.635,3.864c-1.01,-0.022 -1.862,-1.156 -1.97,-3.656c-0.091,-2.076 0.569,-3.804 1.537,-3.859Z" style="fill:none;stroke:#000;stroke-width:1.59px;"/><path d="M14.267,12.189c1.242,-0.072 1.846,1.562 2.068,3.651c0.27,2.533 -0.421,3.891 -1.635,3.864c-1.01,-0.022 -1.862,-1.157 -1.971,-3.657c-0.09,-2.075 0.57,-3.803 1.538,-3.858Z" style="fill:none;stroke:#000;stroke-width:1.59px;"/><path d="M2.498,1.478c0.778,-0.467 1.541,-1.192 2.289,-2.179c-0.105,2.779 0.042,5.239 0.326,7.526" style="fill:none;stroke:#000;stroke-width:1.59px;"/><path d="M4.053,28.481c0.778,-0.468 1.542,-1.192 2.29,-2.18c-0.105,2.779 0.041,5.24 0.325,7.527" style="fill:none;stroke:#000;stroke-width:1.59px;"/><path d="M3.269,14.87c0.778,-0.468 1.542,-1.192 2.29,-2.18c-0.105,2.779 0.041,5.24 0.325,7.527" style="fill:none;stroke:#000;stroke-width:1.59px;"/><g><path d="M24.229,8.51l-10.085,0.581l0.771,13.392l10.086,-0.581l-0.772,-13.392Z" style="fill:#fff;stroke:#000;stroke-width:0.8px;"/><path d="M21.535,11.613c-0.851,0.122 -2.224,0.185 -3.557,0.205c0.237,1.494 0.259,2.614 0.208,3.607c0,0 3.472,-1.299 3.886,1.406c0.522,3.407 -3.678,2.2 -3.678,2.2" style="fill:none;stroke:#000;stroke-width:1.6px;"/></g><path d="M21.188,7.928l-23.621,1.361l0.087,1.509l23.621,-1.361l-0.087,-1.509Z" style="fill:#fff;stroke:#000;stroke-width:0.8px;"/><path d="M21.96,21.32l-23.621,1.36l0.087,1.509l23.621,-1.36l-0.087,-1.509Z" style="fill:#fff;stroke:#000;stroke-width:0.8px;"/></g></g></g></svg>