<?xml version="1.0" encoding="UTF-8" standalone="no"?><!DOCTYPE svg PUBLIC "-//W3C//DTD SVG 1.1//EN" "http://www.w3.org/Graphics/SVG/1.1/DTD/svg11.dtd"><svg width="100%" height="100%" viewBox="0 0 30 30" version="1.1" xmlns="http://www.w3.org/2000/svg" xmlns:xlink="http://www.w3.org/1999/xlink" xml:space="preserve" xmlns:serif="http://www.serif.com/" style="fill-rule:evenodd;clip-rule:evenodd;stroke-linecap:round;stroke-linejoin:round;stroke-miterlimit:1.5;"><rect id="Export" x="0" y="0" width="30" height="30" style="fill:none;"/><clipPath id="_clip1"><rect x="0" y="0" width="30" height="30"/></clipPath><g clip-path="url(#_clip1)"><rect x="-4.726" y="7.642" width="16.309" height="7.205" style="fill:#3f5caa;stroke:#000;stroke-width:0.8px;"/><rect x="-2.978" y="14.846" width="21.722" height="7.205" style="fill:#3f5caa;stroke:#000;stroke-width:0.8px;"/><rect x="11.583" y="7.642" width="14.366" height="7.205" style="fill:#df0000;stroke:#000;stroke-width:0.8px;"/><rect x="18.744" y="14.846" width="18.7" height="7.205" style="fill:#df0000;stroke:#000;stroke-width:0.8px;"/><path d="M22.407,13.591c-0.157,-0.005 -0.301,-0.092 -0.379,-0.228c-0.086,-0.15 -0.079,-0.335 0.016,-0.478c0.101,-0.151 0.218,-0.35 0.348,-0.59c0.158,-0.296 0.354,-0.681 0.581,-1.145c0.203,-0.416 0.325,-0.794 0.354,-1.127c0.006,-0.059 0.01,-0.107 -0.018,-0.14c-0.034,-0.043 -0.096,-0.057 -0.176,-0.073c-0.06,-0.012 -0.115,0.014 -0.173,0.057c-0.109,0.082 -0.211,0.221 -0.316,0.408c-0.123,0.218 -0.398,0.296 -0.617,0.174c-0.22,-0.122 -0.298,-0.4 -0.176,-0.618c0.415,-0.743 0.926,-1.018 1.459,-0.912c0.321,0.064 0.559,0.207 0.713,0.402c0.159,0.201 0.238,0.463 0.21,0.782c-0.039,0.433 -0.186,0.921 -0.444,1.446c-0.219,0.448 -0.409,0.825 -0.568,1.121c0.152,-0.002 0.326,-0.006 0.521,-0.013c0.254,-0.008 0.461,0.188 0.47,0.441c0.007,0.25 -0.189,0.46 -0.44,0.468c-0.334,0.011 -0.61,0.016 -0.82,0.015c-0.196,0 -0.366,0.003 -0.506,0.01c-0.008,0 -0.016,0 -0.024,0l-0.015,0Z" style="fill-rule:nonzero;"/><path d="M9.405,9.424c-0.415,0.035 -1.08,0.027 -1.724,0c0.073,0.728 0.053,1.269 0,1.747c0,0 1.713,-0.531 1.838,0.787c0.157,1.66 -1.838,0.961 -1.838,0.961" style="fill:none;stroke:#000;stroke-width:0.8px;"/><path d="M16.353,16.927c-1.039,-0.767 -1.95,-0.229 -1.919,2.079c0.023,1.717 2.26,1.644 2.188,0.244c-0.088,-1.722 -2.188,-0.574 -2.188,-0.574" style="fill:none;stroke:#000;stroke-width:0.8px;"/></g></svg>